<?xml version="1.0" encoding="UTF-8"?> <svg xmlns="http://www.w3.org/2000/svg" width="372" height="228" viewBox="0 0 372 228" fill="none"><path d="M203.3 213.676C235.252 213.676 261.155 209.47 261.155 204.282C261.155 199.094 235.252 194.889 203.3 194.889C171.348 194.889 145.445 199.094 145.445 204.282C145.445 209.47 171.348 213.676 203.3 213.676Z" fill="#FAFAFD"></path><path d="M177.845 160.726H228.761V191.344H177.845V160.726Z" fill="#8477CF"></path><path d="M153.146 191.051H253.46V204.325H153.146V191.051Z" fill="#8477CF"></path><path d="M310.724 0.928711H95.8806C89.667 0.928711 84.6299 5.97446 84.6299 12.1987V152.036C84.6299 158.26 89.667 163.306 95.8806 163.306H310.724C316.938 163.306 321.975 158.26 321.975 152.036V12.1987C321.975 5.97446 316.938 0.928711 310.724 0.928711Z" fill="#8477CF"></path><path d="M303.681 7.29395H102.924C97.1602 7.29395 92.4873 11.9748 92.4873 17.7489V146.488C92.4873 152.262 97.1602 156.943 102.924 156.943H303.681C309.445 156.943 314.118 152.262 314.118 146.488V17.7489C314.118 11.9748 309.445 7.29395 303.681 7.29395Z" fill="#EBE8FE"></path><path d="M170.736 18.3525H104.931C103.492 18.3525 102.325 19.5208 102.325 20.9619C102.325 22.403 103.492 23.5713 104.931 23.5713H170.736C172.175 23.5713 173.341 22.403 173.341 20.9619C173.341 19.5208 172.175 18.3525 170.736 18.3525Z" fill="white"></path><path d="M170.736 29.6812H104.931C103.492 29.6812 102.325 30.8494 102.325 32.2905C102.325 33.7316 103.492 34.8999 104.931 34.8999H170.736C172.175 34.8999 173.341 33.7316 173.341 32.2905C173.341 30.8494 172.175 29.6812 170.736 29.6812Z" fill="white"></path><path d="M170.736 41.0098H104.931C103.492 41.0098 102.325 42.178 102.325 43.6192C102.325 45.0603 103.492 46.2286 104.931 46.2286H170.736C172.175 46.2286 173.341 45.0603 173.341 43.6192C173.341 42.178 172.175 41.0098 170.736 41.0098Z" fill="white"></path><path d="M170.736 52.3389H104.931C103.492 52.3389 102.325 53.5071 102.325 54.9482C102.325 56.3894 103.492 57.5576 104.931 57.5576H170.736C172.175 57.5576 173.341 56.3894 173.341 54.9482C173.341 53.5071 172.175 52.3389 170.736 52.3389Z" fill="white"></path><path d="M170.736 63.6675H104.931C103.492 63.6675 102.325 64.8357 102.325 66.2768C102.325 67.718 103.492 68.8862 104.931 68.8862H170.736C172.175 68.8862 173.341 67.718 173.341 66.2768C173.341 64.8357 172.175 63.6675 170.736 63.6675Z" fill="white"></path><path d="M170.736 87.1836H104.931C103.492 87.1836 102.325 88.3518 102.325 89.793C102.325 91.2341 103.492 92.4023 104.931 92.4023H170.736C172.175 92.4023 173.341 91.2341 173.341 89.793C173.341 88.3518 172.175 87.1836 170.736 87.1836Z" fill="white"></path><path d="M170.736 98.5127H104.931C103.492 98.5127 102.325 99.6809 102.325 101.122C102.325 102.563 103.492 103.731 104.931 103.731H170.736C172.175 103.731 173.341 102.563 173.341 101.122C173.341 99.6809 172.175 98.5127 170.736 98.5127Z" fill="#FF8C00"></path><path d="M170.736 109.841H104.931C103.492 109.841 102.325 111.01 102.325 112.451C102.325 113.892 103.492 115.06 104.931 115.06H170.736C172.175 115.06 173.341 113.892 173.341 112.451C173.341 111.01 172.175 109.841 170.736 109.841Z" fill="white"></path><path d="M170.736 121.17H104.931C103.492 121.17 102.325 122.338 102.325 123.779C102.325 125.22 103.492 126.389 104.931 126.389H170.736C172.175 126.389 173.341 125.22 173.341 123.779C173.341 122.338 172.175 121.17 170.736 121.17Z" fill="white"></path><path d="M170.736 132.499H104.931C103.492 132.499 102.325 133.667 102.325 135.108C102.325 136.55 103.492 137.718 104.931 137.718H170.736C172.175 137.718 173.341 136.55 173.341 135.108C173.341 133.667 172.175 132.499 170.736 132.499Z" fill="white"></path><path d="M296.956 87.1836H187.584C186.145 87.1836 184.979 88.3518 184.979 89.793C184.979 91.2341 186.145 92.4023 187.584 92.4023H296.956C298.395 92.4023 299.561 91.2341 299.561 89.793C299.561 88.3518 298.395 87.1836 296.956 87.1836Z" fill="white"></path><path d="M296.956 98.5127H187.584C186.145 98.5127 184.979 99.6809 184.979 101.122C184.979 102.563 186.145 103.731 187.584 103.731H296.956C298.395 103.731 299.561 102.563 299.561 101.122C299.561 99.6809 298.395 98.5127 296.956 98.5127Z" fill="white"></path><path d="M296.956 109.841H187.584C186.145 109.841 184.979 111.01 184.979 112.451C184.979 113.892 186.145 115.06 187.584 115.06H296.956C298.395 115.06 299.561 113.892 299.561 112.451C299.561 111.01 298.395 109.841 296.956 109.841Z" fill="white"></path><path d="M296.956 121.17H187.584C186.145 121.17 184.979 122.338 184.979 123.779C184.979 125.22 186.145 126.389 187.584 126.389H296.956C298.395 126.389 299.561 125.22 299.561 123.779C299.561 122.338 298.395 121.17 296.956 121.17Z" fill="white"></path><path d="M296.956 132.499H187.584C186.145 132.499 184.979 133.667 184.979 135.108C184.979 136.55 186.145 137.718 187.584 137.718H296.956C298.395 137.718 299.561 136.55 299.561 135.108C299.561 133.667 298.395 132.499 296.956 132.499Z" fill="white"></path><path d="M185.998 17.9277H301.976C302.586 17.9277 303.172 18.1707 303.604 18.6032C304.035 19.0357 304.278 19.6223 304.278 20.234V67.2002C304.278 67.8122 304.035 68.3991 303.603 68.8319C303.171 69.2646 302.585 69.5077 301.974 69.5077H185.998C185.387 69.5077 184.801 69.2646 184.369 68.8319C183.937 68.3991 183.694 67.8122 183.694 67.2002V20.234C183.694 19.931 183.754 19.631 183.87 19.3511C183.985 19.0712 184.155 18.817 184.369 18.6028C184.583 18.3886 184.837 18.2188 185.116 18.1029C185.396 17.9871 185.695 17.9276 185.998 17.9277Z" fill="white"></path><path d="M301.045 45.5439V65.1488C301.044 65.569 300.876 65.9715 300.579 66.268C300.282 66.5645 299.88 66.7307 299.46 66.7301H188.073C187.866 66.7306 187.66 66.69 187.468 66.6108C187.275 66.5316 187.101 66.4153 186.953 66.2685C186.806 66.1217 186.689 65.9472 186.609 65.7551C186.529 65.563 186.488 65.357 186.487 65.1488V22.0864C196.776 22.0864 201.898 25.9389 204.901 31.0002C205.098 31.3239 205.275 31.6527 205.449 31.9914C210.529 41.6226 209 54.8226 220.173 54.8226C220.571 54.8249 220.968 54.7753 221.353 54.6751C221.589 54.6255 221.82 54.55 222.04 54.4501C229.555 51.2788 228.383 28.7789 241.756 28.9402C244.612 28.9752 246.748 30.0727 248.429 31.8227C248.591 31.9989 248.752 32.1739 248.907 32.3639C254.896 39.4001 254.976 55.0826 264.168 57.9288C267.481 58.9551 270.407 57.5638 273.299 55.2651C273.481 55.1176 273.673 54.9701 273.853 54.8088C279.967 49.7264 286.042 41.0376 295.473 43.1676C295.746 43.2314 296.021 43.3014 296.301 43.3789C297.971 43.8858 299.567 44.6139 301.045 45.5439Z" fill="#EBE8FE"></path><path d="M301.053 41.5852C299.056 41.6152 297.522 42.2889 296.295 43.3789C294.022 45.3952 292.8 48.8402 291.608 52.2077C289.818 57.2477 287.972 62.4489 282.575 62.4489C282.288 62.4489 281.987 62.4352 281.678 62.4064C278.162 62.0627 275.572 59.1952 273.293 55.2652C271.875 52.8327 270.576 49.9864 269.257 47.0702C265.52 38.8664 261.658 30.3814 254.538 30.1852C254.454 30.1852 254.378 30.1777 254.3 30.1777C252.145 30.1777 250.383 31.0002 248.897 32.3639C245.886 35.1139 243.97 40.0677 242.096 44.9177C239.325 52.0952 236.462 59.5189 229.992 59.6677C225.347 59.7677 223.235 58.0089 221.34 54.6777C220.61 53.3839 219.909 51.8514 219.108 50.1014C217.649 46.8964 215.825 42.9102 212.807 38.2714C210.78 35.1639 208.204 33.1889 205.445 31.9939C197.993 28.7439 189.223 31.1189 186.478 32.0152V31.2764C189.411 30.3489 197.607 28.2464 204.891 31.0027C208.071 32.2039 211.074 34.3339 213.389 37.8914C216.442 42.5664 218.273 46.5789 219.753 49.8064C220.58 51.6189 221.288 53.1739 222.033 54.4527C223.816 57.5377 225.776 59.0639 229.983 58.9651C235.973 58.8251 238.628 51.9502 241.443 44.6677C243.351 39.7264 245.296 34.6789 248.418 31.8252C250.074 30.3139 252.059 29.4127 254.551 29.4839C262.116 29.6877 266.066 38.3764 269.891 46.7839C271.196 49.6364 272.459 52.4277 273.842 54.8114C276.032 58.6214 278.487 61.3827 281.743 61.7064C287.301 62.2552 289.069 57.2639 290.944 51.9714C292.108 48.6739 293.3 45.3152 295.462 43.1702C296.835 41.7952 298.613 40.9202 301.034 40.8852L301.053 41.5852Z" fill="#FF8C00"></path><path d="M109.787 18.8462C109.787 17.6752 109.322 16.5522 108.496 15.7243C107.669 14.8963 106.548 14.4312 105.379 14.4312H30.1643C29.5855 14.4312 29.0124 14.5453 28.4776 14.7672C27.9429 14.9891 27.457 15.3143 27.0478 15.7243C26.6385 16.1342 26.3138 16.6209 26.0923 17.1566C25.8708 17.6923 25.7568 18.2664 25.7568 18.8462V23.8899H109.787V18.8462Z" fill="#8477CF"></path><path d="M25.7568 23.8901V63.4526C25.7568 64.6236 26.2212 65.7465 27.0478 66.5745C27.8743 67.4025 28.9954 67.8676 30.1643 67.8676H105.374C106.543 67.8676 107.664 67.4025 108.491 66.5745C109.317 65.7465 109.782 64.6236 109.782 63.4526V23.8901H25.7568Z" fill="#EBE8FE"></path><path d="M89.5223 21.054C90.4672 21.054 91.2332 20.2867 91.2332 19.3402C91.2332 18.3937 90.4672 17.6265 89.5223 17.6265C88.5775 17.6265 87.8115 18.3937 87.8115 19.3402C87.8115 20.2867 88.5775 21.054 89.5223 21.054Z" fill="white"></path><path d="M96.4315 21.054C97.3764 21.054 98.1423 20.2867 98.1423 19.3402C98.1423 18.3937 97.3764 17.6265 96.4315 17.6265C95.4867 17.6265 94.7207 18.3937 94.7207 19.3402C94.7207 20.2867 95.4867 21.054 96.4315 21.054Z" fill="white"></path><path d="M103.341 21.054C104.286 21.054 105.052 20.2867 105.052 19.3402C105.052 18.3937 104.286 17.6265 103.341 17.6265C102.396 17.6265 101.63 18.3937 101.63 19.3402C101.63 20.2867 102.396 21.054 103.341 21.054Z" fill="white"></path><path d="M98.6546 30.3188H74.9689C71.2921 30.3188 68.3115 33.3046 68.3115 36.9876V57.8788C68.3115 61.5619 71.2921 64.5476 74.9689 64.5476H98.6546C102.331 64.5476 105.312 61.5619 105.312 57.8788V36.9876C105.312 33.3046 102.331 30.3188 98.6546 30.3188Z" fill="white"></path><path d="M93.7846 36.1112H72.7743C72.5609 36.1028 72.3596 36.0098 72.2145 35.8528C72.0694 35.6958 71.9925 35.4876 72.0006 35.2738C71.9964 35.1678 72.0131 35.0621 72.0498 34.9626C72.0864 34.8631 72.1422 34.7718 72.214 34.6939C72.2859 34.616 72.3723 34.5531 72.4685 34.5087C72.5646 34.4643 72.6685 34.4392 72.7743 34.4351H93.7895C94.003 34.4438 94.2044 34.537 94.3494 34.6943C94.4944 34.8515 94.5713 35.0599 94.5632 35.2738C94.5671 35.38 94.5499 35.4859 94.5129 35.5855C94.4758 35.6851 94.4195 35.7764 94.3472 35.8542C94.2749 35.932 94.188 35.9947 94.0914 36.0388C93.9949 36.0829 93.8906 36.1075 93.7846 36.1112Z" fill="#9E91EC"></path><path d="M93.7846 50.6762H72.7743C72.5609 50.6677 72.3596 50.5748 72.2145 50.4178C72.0694 50.2608 71.9925 50.0525 72.0006 49.8387C71.9964 49.7328 72.0131 49.627 72.0498 49.5275C72.0864 49.428 72.1422 49.3367 72.214 49.2589C72.2859 49.181 72.3723 49.118 72.4685 49.0736C72.5646 49.0292 72.6685 49.0042 72.7743 49H93.7895C94.003 49.0088 94.2044 49.102 94.3494 49.2592C94.4944 49.4164 94.5713 49.6248 94.5632 49.8387C94.5671 49.9449 94.5499 50.0509 94.5129 50.1505C94.4758 50.2501 94.4195 50.3414 94.3472 50.4191C94.2749 50.4969 94.188 50.5596 94.0914 50.6038C93.9949 50.6479 93.8906 50.6725 93.7846 50.6762Z" fill="#9E91EC"></path><path d="M86.482 46.1112H72.5147C72.3729 46.1028 72.239 46.0098 72.1426 45.8528C72.0462 45.6958 71.995 45.4876 72.0004 45.2738C71.9976 45.1678 72.0087 45.0621 72.0331 44.9626C72.0574 44.8631 72.0945 44.7718 72.1423 44.6939C72.19 44.616 72.2475 44.5531 72.3114 44.5087C72.3753 44.4643 72.4444 44.4392 72.5147 44.4351H86.4853C86.6272 44.4438 86.7611 44.537 86.8575 44.6943C86.9539 44.8515 87.005 45.0599 86.9996 45.2738C87.0022 45.38 86.9908 45.4859 86.9661 45.5855C86.9415 45.6851 86.9041 45.7764 86.856 45.8542C86.8079 45.932 86.7501 45.9947 86.686 46.0388C86.6218 46.0829 86.5525 46.1075 86.482 46.1112Z" fill="#9E91EC"></path><path d="M93.7891 41.6251H72.7742C72.5609 41.6164 72.3598 41.5233 72.2148 41.3664C72.0698 41.2094 71.9928 41.0014 72.0005 40.7877C71.9928 40.574 72.0698 40.3659 72.2148 40.209C72.3598 40.052 72.5609 39.959 72.7742 39.9502H93.7891C94.0025 39.9587 94.2038 40.0516 94.3488 40.2086C94.4939 40.3656 94.5708 40.5739 94.5627 40.7877C94.5708 41.0014 94.4939 41.2097 94.3488 41.3667C94.2038 41.5237 94.0025 41.6167 93.7891 41.6251Z" fill="#FF8C00"></path><path d="M61.7337 44.0987C60.9785 40.7625 59.1138 37.7825 56.4455 35.6475C53.7772 33.5125 50.4638 32.3493 47.0488 32.3486V47.4325L61.7337 44.0987Z" fill="#FF8C00"></path><path d="M47.0486 47.4326V32.3477C43.9242 32.3456 40.8765 33.3165 38.3272 35.1258C35.7778 36.9351 33.853 39.4935 32.8189 42.4468C31.7849 45.4001 31.6929 48.6024 32.5555 51.6105C33.4182 54.6185 35.1929 57.2836 37.634 59.2368C40.0752 61.1901 43.0621 62.335 46.1814 62.5131C49.3007 62.6912 52.3981 61.8937 55.045 60.2309C57.692 58.5681 59.7575 56.1223 60.9557 53.2319C62.154 50.3415 62.4258 47.1495 61.7334 44.0976L47.0486 47.4326Z" fill="white"></path><path d="M47.0484 59.2162C53.4053 59.2162 58.5587 54.0541 58.5587 47.6862C58.5587 41.3184 53.4053 36.1562 47.0484 36.1562C40.6914 36.1562 35.5381 41.3184 35.5381 47.6862C35.5381 54.0541 40.6914 59.2162 47.0484 59.2162Z" fill="#EBE8FE"></path><path d="M371.822 23.1038C371.822 22.3075 371.666 21.519 371.361 20.7833C371.057 20.0476 370.611 19.3791 370.049 18.8161C369.487 18.253 368.82 17.8064 368.085 17.5016C367.351 17.1969 366.564 17.04 365.769 17.04H262.466C261.671 17.0397 260.883 17.1963 260.149 17.5009C259.414 17.8055 258.746 18.2521 258.184 18.8152C257.622 19.3783 257.176 20.0469 256.871 20.7827C256.567 21.5186 256.41 22.3073 256.41 23.1038V30.0313H371.821L371.822 23.1038Z" fill="#8477CF"></path><path d="M256.41 30.0312V84.375C256.41 85.9836 257.048 87.5262 258.184 88.6636C259.319 89.801 260.859 90.44 262.465 90.44H365.768C366.563 90.44 367.35 90.2831 368.084 89.9783C368.819 89.6735 369.486 89.2267 370.048 88.6635C370.611 88.1003 371.056 87.4317 371.361 86.6959C371.665 85.9601 371.821 85.1714 371.821 84.375V30.0312H256.41Z" fill="#D5CFFB"></path><path d="M302.253 36.1112H281.243C281.03 36.1028 280.828 36.0098 280.683 35.8528C280.538 35.6958 280.461 35.4876 280.469 35.2738C280.465 35.1678 280.482 35.0621 280.519 34.9626C280.555 34.8631 280.611 34.7718 280.683 34.6939C280.755 34.616 280.841 34.5531 280.937 34.5087C281.033 34.4643 281.137 34.4392 281.243 34.4351H302.258C302.472 34.4438 302.673 34.537 302.818 34.6943C302.963 34.8515 303.04 35.0599 303.032 35.2738C303.036 35.38 303.019 35.4859 302.982 35.5855C302.945 35.6851 302.888 35.7764 302.816 35.8542C302.744 35.932 302.657 35.9947 302.56 36.0388C302.464 36.0829 302.359 36.1075 302.253 36.1112Z" fill="#9E91EC"></path><path d="M298.788 43.6251H277.773C277.56 43.6164 277.359 43.5233 277.214 43.3664C277.069 43.2094 276.992 43.0014 277 42.7877C276.992 42.574 277.069 42.3659 277.214 42.209C277.359 42.052 277.56 41.959 277.773 41.9502H298.788C299.001 41.9587 299.203 42.0516 299.348 42.2086C299.493 42.3656 299.57 42.5739 299.562 42.7877C299.57 43.0014 299.493 43.2097 299.348 43.3667C299.203 43.5237 299.001 43.6167 298.788 43.6251Z" fill="#FF8C00"></path><path d="M343.354 43.6251H307.264C307.051 43.6164 306.85 43.5233 306.705 43.3663C306.56 43.2093 306.484 43.0012 306.492 42.7877C306.484 42.5741 306.56 42.366 306.705 42.209C306.85 42.0521 307.051 41.959 307.264 41.9502H343.354C343.567 41.9587 343.768 42.0516 343.914 42.2086C344.059 42.3656 344.135 42.5739 344.127 42.7877C344.135 43.0014 344.059 43.2097 343.914 43.3667C343.768 43.5237 343.567 43.6167 343.354 43.6251Z" fill="#9E91EC"></path><path d="M320.426 36.1112H309.806C309.592 36.1028 309.391 36.0098 309.246 35.8528C309.101 35.6958 309.024 35.4876 309.032 35.2738C309.028 35.1678 309.044 35.0621 309.081 34.9626C309.118 34.8631 309.173 34.7718 309.245 34.6939C309.317 34.616 309.404 34.5531 309.5 34.5087C309.596 34.4643 309.7 34.4392 309.806 34.4351H320.426C320.64 34.4438 320.841 34.537 320.986 34.6943C321.131 34.8515 321.208 35.0599 321.2 35.2738C321.208 35.4875 321.13 35.6955 320.985 35.8525C320.84 36.0094 320.639 36.1025 320.426 36.1112Z" fill="#9E91EC"></path><path d="M339.069 36.1112H328.448C328.235 36.1028 328.033 36.0098 327.888 35.8528C327.743 35.6958 327.666 35.4876 327.674 35.2738C327.67 35.1678 327.687 35.0621 327.724 34.9626C327.76 34.8631 327.816 34.7718 327.888 34.6939C327.96 34.616 328.046 34.5531 328.142 34.5087C328.238 34.4643 328.342 34.4392 328.448 34.4351H339.069C339.282 34.4438 339.483 34.537 339.628 34.6943C339.774 34.8515 339.85 35.0599 339.842 35.2738C339.85 35.4875 339.773 35.6955 339.628 35.8525C339.483 36.0094 339.282 36.1025 339.069 36.1112Z" fill="#9E91EC"></path><path d="M291.834 51.1251H278.027C277.814 51.1163 277.613 51.0232 277.468 50.8663C277.323 50.7093 277.246 50.5012 277.254 50.2875C277.245 50.0736 277.322 49.8652 277.467 49.708C277.612 49.5507 277.814 49.4575 278.027 49.4487H291.834C292.047 49.4575 292.248 49.5507 292.393 49.708C292.538 49.8652 292.615 50.0736 292.607 50.2875C292.615 50.5012 292.538 50.7093 292.393 50.8663C292.248 51.0232 292.047 51.1163 291.834 51.1251Z" fill="#9E91EC"></path><path d="M320.464 51.1251H299.449C299.236 51.1166 299.034 51.0236 298.889 50.8666C298.744 50.7096 298.667 50.5013 298.675 50.2875C298.671 50.1815 298.688 50.0758 298.725 49.9763C298.761 49.8768 298.817 49.7855 298.889 49.7076C298.961 49.6297 299.047 49.5668 299.143 49.5223C299.239 49.4779 299.343 49.4529 299.449 49.4487H320.464C320.678 49.4575 320.879 49.5507 321.024 49.708C321.169 49.8652 321.246 50.0736 321.238 50.2875C321.246 50.5012 321.169 50.7093 321.024 50.8663C320.879 51.0232 320.678 51.1163 320.464 51.1251Z" fill="#FF8C00"></path><path d="M335.79 51.1251H327.941C327.728 51.1166 327.527 51.0236 327.381 50.8666C327.236 50.7096 327.16 50.5013 327.168 50.2875C327.163 50.1815 327.18 50.0758 327.217 49.9763C327.253 49.8768 327.309 49.7855 327.381 49.7076C327.453 49.6297 327.539 49.5668 327.635 49.5223C327.732 49.4779 327.835 49.4529 327.941 49.4487H335.79C336.004 49.4575 336.205 49.5508 336.35 49.708C336.494 49.8653 336.571 50.0737 336.563 50.2875C336.571 50.5011 336.494 50.7092 336.349 50.8662C336.204 51.0232 336.003 51.1163 335.79 51.1251Z" fill="#9E91EC"></path><path d="M304.827 58.6348H292.513C292.3 58.626 292.099 58.533 291.954 58.3761C291.809 58.2191 291.732 58.0111 291.74 57.7974C291.732 57.5837 291.809 57.3756 291.954 57.2187C292.099 57.0618 292.3 56.9687 292.513 56.96H304.827C305.04 56.9687 305.241 57.0618 305.386 57.2188C305.531 57.3758 305.608 57.5838 305.6 57.7974C305.608 58.0109 305.531 58.219 305.386 58.376C305.241 58.533 305.04 58.626 304.827 58.6348Z" fill="#9E91EC"></path><path d="M334.285 58.6348H313.268C313.055 58.626 312.854 58.533 312.709 58.376C312.564 58.219 312.488 58.0109 312.496 57.7974C312.488 57.5838 312.564 57.3758 312.709 57.2188C312.854 57.0618 313.055 56.9687 313.268 56.96H334.285C334.498 56.9687 334.699 57.0618 334.844 57.2187C334.989 57.3756 335.066 57.5837 335.058 57.7974C335.066 58.0111 334.989 58.2191 334.844 58.3761C334.699 58.533 334.498 58.626 334.285 58.6348Z" fill="#9E91EC"></path><path d="M327.548 66.1435H288.168C287.955 66.1347 287.753 66.0417 287.608 65.8848C287.463 65.7278 287.386 65.5197 287.394 65.306C287.386 65.0921 287.463 64.8837 287.608 64.7265C287.753 64.5693 287.954 64.4761 288.168 64.4673H327.548C327.654 64.4715 327.757 64.4965 327.854 64.5409C327.95 64.5853 328.036 64.6483 328.108 64.7261C328.18 64.804 328.236 64.8953 328.272 64.9948C328.309 65.0943 328.326 65.2001 328.321 65.306C328.33 65.5198 328.253 65.7281 328.108 65.8851C327.963 66.0421 327.761 66.1351 327.548 66.1435Z" fill="#9E91EC"></path><path d="M357 66.1435H333.212C332.998 66.1347 332.797 66.0417 332.652 65.8848C332.507 65.7278 332.43 65.5197 332.438 65.306C332.43 65.0921 332.507 64.8837 332.652 64.7265C332.797 64.5693 332.998 64.4761 333.212 64.4673H357C357.213 64.4761 357.414 64.5693 357.559 64.7265C357.704 64.8837 357.781 65.0921 357.773 65.306C357.781 65.5197 357.704 65.7278 357.559 65.8848C357.414 66.0417 357.213 66.1347 357 66.1435Z" fill="#9E91EC"></path><path d="M298.788 73.6511H277.773C277.56 73.6423 277.359 73.5492 277.214 73.3923C277.069 73.2353 276.992 73.0273 277 72.8136C276.992 72.5999 277.069 72.3918 277.214 72.2348C277.359 72.0779 277.56 71.9849 277.773 71.9761H298.788C299.001 71.9845 299.203 72.0775 299.348 72.2345C299.493 72.3915 299.57 72.5998 299.562 72.8136C299.57 73.0274 299.493 73.2356 299.348 73.3926C299.203 73.5497 299.001 73.6426 298.788 73.6511Z" fill="#9E91EC"></path><path d="M324.22 73.6511H303.205C302.992 73.6423 302.79 73.5492 302.645 73.3923C302.5 73.2353 302.423 73.0273 302.431 72.8136C302.423 72.5999 302.5 72.3918 302.645 72.2348C302.79 72.0779 302.992 71.9849 303.205 71.9761H324.221C324.435 71.9849 324.636 72.0779 324.781 72.2348C324.926 72.3918 325.003 72.5999 324.995 72.8136C325.003 73.0275 324.926 73.2357 324.78 73.3927C324.635 73.5497 324.434 73.6426 324.22 73.6511Z" fill="#FF8C00"></path><path d="M326.243 81.1601H294.324C294.111 81.1517 293.909 81.0587 293.764 80.9017C293.619 80.7447 293.542 80.5364 293.55 80.3226C293.546 80.2167 293.563 80.1109 293.6 80.0114C293.636 79.9119 293.692 79.8206 293.764 79.7427C293.836 79.6649 293.922 79.6019 294.018 79.5575C294.114 79.5131 294.218 79.4881 294.324 79.4839H326.243C326.349 79.4881 326.453 79.5131 326.549 79.5575C326.645 79.6019 326.731 79.6649 326.803 79.7427C326.875 79.8206 326.931 79.9119 326.968 80.0114C327.004 80.1109 327.021 80.2167 327.017 80.3226C327.025 80.5364 326.948 80.7447 326.803 80.9017C326.658 81.0587 326.456 81.1517 326.243 81.1601Z" fill="#9E91EC"></path><path d="M266.727 34.4351H268.274V36.1112H266.727V34.4351Z" fill="#9E91EC"></path><path d="M266.727 41.9438H268.274V43.6201H266.727V41.9438Z" fill="#9E91EC"></path><path d="M266.727 49.4512H268.274V51.1274H266.727V49.4512Z" fill="#9E91EC"></path><path d="M266.727 56.96H268.274V58.6361H266.727V56.96Z" fill="#9E91EC"></path><path d="M266.727 64.4673H268.274V66.1435H266.727V64.4673Z" fill="#9E91EC"></path><path d="M266.727 71.9761H268.274V73.6523H266.727V71.9761Z" fill="#9E91EC"></path><path d="M266.727 79.4839H268.274V81.1601H266.727V79.4839Z" fill="#9E91EC"></path><path d="M348.877 84.5777L343.241 81.9839C343.153 81.9409 343.079 81.8738 343.028 81.7903C342.977 81.7069 342.951 81.6105 342.952 81.5127V80.9552C342.95 80.8573 342.977 80.7609 343.028 80.6774C343.079 80.5939 343.153 80.5268 343.241 80.4839L348.877 77.8901C348.952 77.8592 349.033 77.8479 349.114 77.8571C349.194 77.8664 349.271 77.896 349.336 77.9431C349.402 77.9903 349.455 78.0534 349.49 78.1266C349.524 78.1997 349.54 78.2805 349.535 78.3614V78.5601C349.537 78.6589 349.51 78.756 349.458 78.8401C349.407 78.9241 349.332 78.9914 349.243 79.0339L345.374 80.7601C345.287 80.804 345.213 80.8715 345.161 80.9551C345.11 81.0387 345.082 81.135 345.082 81.2333C345.082 81.3316 345.11 81.4279 345.161 81.5115C345.213 81.595 345.287 81.6625 345.374 81.7064L349.243 83.4339C349.332 83.4761 349.407 83.5431 349.459 83.627C349.51 83.7108 349.537 83.8079 349.535 83.9064V84.1064C349.54 84.1873 349.524 84.2681 349.49 84.3413C349.455 84.4144 349.402 84.4775 349.336 84.5247C349.271 84.5718 349.194 84.6014 349.114 84.6107C349.033 84.62 348.952 84.6086 348.877 84.5777Z" fill="#FAFAFD"></path><path d="M353.986 76.4252L351.382 86.1752C351.358 86.2793 351.301 86.3727 351.219 86.4406C351.136 86.5085 351.034 86.547 350.927 86.5502C350.851 86.5469 350.776 86.5258 350.708 86.4886C350.641 86.4514 350.583 86.3991 350.539 86.3358C350.495 86.2725 350.467 86.1999 350.456 86.1237C350.444 86.0475 350.451 85.9698 350.475 85.8965L353.078 76.1465C353.101 76.0422 353.158 75.9486 353.24 75.8806C353.323 75.8127 353.425 75.7743 353.532 75.7715C353.609 75.7747 353.684 75.7956 353.751 75.8327C353.819 75.8699 353.877 75.9221 353.921 75.9854C353.965 76.0487 353.994 76.1214 354.005 76.1977C354.016 76.274 354.01 76.3519 353.986 76.4252Z" fill="#FAFAFD"></path><path d="M361.22 81.9839L355.583 84.5777C355.509 84.6086 355.427 84.62 355.347 84.6107C355.267 84.6014 355.19 84.5718 355.124 84.5247C355.058 84.4775 355.006 84.4144 354.971 84.3413C354.936 84.2681 354.921 84.1873 354.926 84.1064V83.9064C354.924 83.8078 354.951 83.7107 355.003 83.6269C355.055 83.543 355.13 83.476 355.219 83.4339L359.088 81.7064C359.175 81.6625 359.249 81.595 359.301 81.5115C359.353 81.4279 359.38 81.3316 359.38 81.2333C359.38 81.135 359.353 81.0387 359.301 80.9551C359.249 80.8715 359.175 80.804 359.088 80.7601L355.219 79.0339C355.13 78.9914 355.055 78.9242 355.003 78.8402C354.951 78.7562 354.924 78.659 354.926 78.5601V78.3614C354.921 78.2805 354.936 78.1997 354.971 78.1266C355.006 78.0534 355.058 77.9903 355.124 77.9431C355.19 77.896 355.267 77.8664 355.347 77.8571C355.427 77.8479 355.509 77.8592 355.583 77.8901L361.22 80.4839C361.308 80.5268 361.382 80.5939 361.433 80.6774C361.484 80.7609 361.51 80.8573 361.509 80.9552V81.5127C361.51 81.6105 361.484 81.7069 361.433 81.7903C361.382 81.8738 361.308 81.9409 361.22 81.9839Z" fill="#FAFAFD"></path><path d="M343.997 26.1362C345.295 26.1362 346.347 25.0824 346.347 23.7825C346.347 22.4825 345.295 21.4287 343.997 21.4287C342.699 21.4287 341.647 22.4825 341.647 23.7825C341.647 25.0824 342.699 26.1362 343.997 26.1362Z" fill="white"></path><path d="M353.488 26.1362C354.786 26.1362 355.838 25.0824 355.838 23.7825C355.838 22.4825 354.786 21.4287 353.488 21.4287C352.191 21.4287 351.139 22.4825 351.139 23.7825C351.139 25.0824 352.191 26.1362 353.488 26.1362Z" fill="white"></path><path d="M362.978 26.1362C364.275 26.1362 365.327 25.0824 365.327 23.7825C365.327 22.4825 364.275 21.4287 362.978 21.4287C361.68 21.4287 360.628 22.4825 360.628 23.7825C360.628 25.0824 361.68 26.1362 362.978 26.1362Z" fill="white"></path><path d="M283.201 120.085C283.201 118.81 282.696 117.588 281.796 116.687C280.897 115.786 279.677 115.28 278.405 115.28H196.545C195.273 115.28 194.053 115.786 193.153 116.687C192.253 117.588 191.748 118.81 191.748 120.085V125.575H283.201V120.085Z" fill="#8477CF"></path><path d="M191.755 125.575V168.633C191.755 169.264 191.879 169.889 192.12 170.471C192.361 171.054 192.714 171.584 193.16 172.03C193.605 172.477 194.134 172.83 194.716 173.072C195.298 173.313 195.922 173.438 196.552 173.438H278.411C279.683 173.438 280.903 172.931 281.803 172.03C282.703 171.129 283.208 169.907 283.208 168.633V125.575H191.755Z" fill="#FAFAFD"></path><path d="M261.154 122.487C262.182 122.487 263.016 121.652 263.016 120.622C263.016 119.592 262.182 118.757 261.154 118.757C260.126 118.757 259.292 119.592 259.292 120.622C259.292 121.652 260.126 122.487 261.154 122.487Z" fill="white"></path><path d="M268.673 122.487C269.702 122.487 270.535 121.652 270.535 120.622C270.535 119.592 269.702 118.757 268.673 118.757C267.645 118.757 266.812 119.592 266.812 120.622C266.812 121.652 267.645 122.487 268.673 122.487Z" fill="white"></path><path d="M276.194 122.487C277.222 122.487 278.056 121.652 278.056 120.622C278.056 119.592 277.222 118.757 276.194 118.757C275.166 118.757 274.332 119.592 274.332 120.622C274.332 121.652 275.166 122.487 276.194 122.487Z" fill="white"></path><path d="M199.763 133.615H207.282V161.906H199.763V133.615Z" fill="#FF8C00"></path><path d="M212.967 137.289H220.486V161.906H212.967V137.289Z" fill="#FF8C00"></path><path d="M226.172 144.638H233.692V161.906H226.172V144.638Z" fill="#FF8C00"></path><path d="M239.377 139.126H246.897V161.906H239.377V139.126Z" fill="#FF8C00"></path><path d="M252.582 144.638H260.102V161.906H252.582V144.638Z" fill="#FF8C00"></path><path d="M265.787 139.126H273.307V161.906H265.787V139.126Z" fill="#FF8C00"></path><path d="M197.012 164.295H276.24V165.397H197.012V164.295Z" fill="#FF8C00"></path><path fill-rule="evenodd" clip-rule="evenodd" d="M47.2835 221.769C47.2835 221.769 46.3064 226.329 41.421 226.329C36.5357 226.329 27.5792 226.329 25.4622 226.329C23.3452 226.329 16.3429 223.886 17.6457 216.233C18.9484 208.416 47.2835 221.769 47.2835 221.769Z" fill="#202020"></path><path fill-rule="evenodd" clip-rule="evenodd" d="M97.2784 205.648C97.9298 204.833 101.838 197.994 101.838 197.994C101.838 197.994 94.3472 197.994 91.416 197.994C88.4848 197.994 79.3655 199.948 74.643 200.111C69.9205 200.111 32.4662 198.32 32.4662 198.32C32.4662 198.32 15.2046 195.063 12.7619 194.737C10.3193 194.411 14.7161 206.462 15.5303 207.439C16.3445 208.416 54.7759 220.467 58.1957 219.489C61.4526 218.35 97.2784 205.648 97.2784 205.648Z" fill="#202020"></path><path fill-rule="evenodd" clip-rule="evenodd" d="M53.9609 214.93C53.9609 214.93 91.0896 200.274 95.6493 198.971C100.209 197.668 103.629 197.342 105.909 199.622C108.188 201.902 109.165 206.787 105.909 210.207C102.652 213.627 80.0162 219.652 70.5711 221.118C61.289 222.42 57.5436 223.235 56.2408 223.398C54.7752 223.56 53.961 223.398 53.6353 222.095C53.3096 220.955 52.6582 217.209 52.6582 216.395C52.6582 215.581 53.9609 214.93 53.9609 214.93Z" fill="#3B3B40"></path><path fill-rule="evenodd" clip-rule="evenodd" d="M65.1964 226.003C65.1964 226.003 64.8706 227.957 66.1734 227.957C67.4761 227.957 72.5243 227.957 75.9441 227.957C79.3638 227.957 85.3891 227.143 87.5061 224.538C89.6231 221.932 90.6001 219.978 90.763 218.187C90.9258 216.395 88.9717 214.278 86.3662 213.627C83.7607 213.139 77.7354 214.604 75.9441 215.256C74.1528 215.907 67.3133 217.047 67.1505 218.024C66.9876 219.327 65.1964 226.003 65.1964 226.003Z" fill="#202020"></path><path fill-rule="evenodd" clip-rule="evenodd" d="M66.9868 156.143C66.9868 156.143 64.3813 151.094 68.941 148.326C72.1979 146.535 84.2484 135.298 88.8081 127.482C95.6476 115.757 81.6429 106.963 67.1497 102.404C65.8469 103.869 66.9868 106.963 68.1268 108.429C68.6153 109.243 79.363 117.711 80.0144 119.991C80.6658 122.434 66.824 138.555 65.5212 140.835C64.0556 143.441 62.4272 151.42 66.9868 156.143Z" fill="#BDBDBD"></path><path fill-rule="evenodd" clip-rule="evenodd" d="M37.3516 142.626C37.3516 142.626 38.8171 140.998 34.4203 143.603C31.1634 145.395 20.09 163.796 15.3675 171.613C8.52801 183.338 21.8813 189.526 33.2804 195.877C33.2804 195.877 35.8859 194.9 36.0488 194.411C36.3745 193.923 35.2346 192.62 36.0488 192.294C36.863 191.968 36.5373 191.317 36.0488 190.666C35.5602 189.851 24.8125 181.383 24.1611 179.104C23.5097 176.661 37.3515 160.539 38.6543 158.26C40.1199 155.654 42.0741 147.349 37.3516 142.626Z" fill="#BDBDBD"></path><path fill-rule="evenodd" clip-rule="evenodd" d="M58.8464 137.09C52.1697 138.067 54.1239 138.067 47.4472 137.09L46.633 137.416L35.5596 142.79L36.6995 162.331C36.6995 163.471 36.8623 164.448 36.8623 165.588V167.705C36.8623 167.705 36.0481 183.99 36.2109 184.641C36.3738 185.292 37.8394 187.084 37.8394 187.084C37.8394 187.572 37.6765 188.061 37.6765 188.549C40.2821 189.689 45.1674 191.155 52.8211 190.992C60.4749 190.992 65.3602 189.689 67.9657 188.549C67.9657 188.061 67.8029 187.572 67.8029 187.084C67.8029 187.084 69.2685 185.455 69.4313 184.641C69.5941 183.99 68.7799 167.705 68.7799 167.705V165.588C68.7799 164.611 68.9428 163.471 68.9428 162.331L70.0827 142.79L77.8993 125.528L58.8464 137.09Z" fill="#BDBDBD"></path><path fill-rule="evenodd" clip-rule="evenodd" d="M52.9828 137.904H53.3085H53.6342C54.7741 137.904 55.914 137.579 59.0081 137.09L60.7994 136.113C57.8682 143.929 51.5172 145.069 45.8176 138.881L45.3291 138.393L46.7947 137.579L47.6089 137.253C50.5401 137.579 51.8429 137.904 52.9828 137.904Z" fill="white"></path><path fill-rule="evenodd" clip-rule="evenodd" d="M57.7056 124.714L57.5427 127.808C57.5427 127.808 57.5427 134.322 57.5427 135.299C57.5427 135.787 58.0312 136.439 58.8454 137.09C54.7743 141.487 51.5174 141.487 47.4463 137.09C48.2605 136.439 48.7491 135.787 48.7491 135.299C48.7491 134.322 48.7491 127.808 48.7491 127.808L48.5862 124.714C48.5862 124.714 50.866 125.202 53.1459 125.691C55.4257 125.202 57.7056 124.714 57.7056 124.714Z" fill="#3B3B40"></path><path fill-rule="evenodd" clip-rule="evenodd" d="M53.3102 106.801C47.7735 106.801 43.2139 111.361 43.2139 116.897V124.714C43.2139 130.251 47.7735 134.81 53.3102 134.81C58.847 134.81 63.4066 130.251 63.4066 124.714V116.897C63.4066 111.198 58.847 106.801 53.3102 106.801Z" fill="#E0E0E0"></path><path fill-rule="evenodd" clip-rule="evenodd" d="M65.0346 122.434C65.0346 122.434 68.4543 121.131 68.78 117.06C68.78 117.06 73.1768 116.897 74.3167 114.454C75.4566 112.012 64.2203 99.6356 59.6607 97.5186C55.101 95.4016 47.773 100.45 47.773 100.45C47.773 100.45 48.0987 98.17 47.4473 97.3558C46.7959 96.7044 42.3991 98.0072 41.4221 105.335C41.4221 105.335 38.9794 104.195 38.1652 104.521C37.1881 104.847 37.3509 106.801 39.3051 107.941C39.3051 107.941 35.5596 109.732 35.2339 112.338C34.9083 114.78 38.6537 114.78 38.6537 114.78C38.6537 114.78 38.6537 120.643 41.5849 122.271L43.2134 121.457C43.2134 121.457 44.0276 121.62 44.0276 120.154C44.0276 118.688 44.0276 118.363 44.0276 118.363C44.0276 118.363 46.4703 116.083 46.4703 113.477C46.4703 113.477 50.3786 114.943 52.1699 114.292C53.9611 113.64 52.9841 111.523 52.9841 111.523C52.9841 111.523 58.0322 116.409 62.1034 116.571C62.1034 116.571 62.1034 118.363 62.1034 119.177C62.1034 120.154 62.4291 121.62 63.2433 122.108L65.0346 122.434Z" fill="#202020"></path><path fill-rule="evenodd" clip-rule="evenodd" d="M63.4072 125.691C65.0357 125.691 66.5013 124.388 66.5013 122.596C66.5013 120.968 65.1985 119.502 63.4072 119.502V125.691Z" fill="#3B3B40"></path><path fill-rule="evenodd" clip-rule="evenodd" d="M43.2142 119.665C41.5858 119.665 40.1201 120.968 40.1201 122.759C40.1201 124.388 41.4229 125.854 43.2142 125.854V119.665Z" fill="#3B3B40"></path><path fill-rule="evenodd" clip-rule="evenodd" d="M83.7607 168.682H64.7079H41.5839H22.531C21.5539 168.682 20.9026 169.496 21.2283 170.31L27.2535 202.879C27.4164 203.856 28.3934 204.508 29.2077 204.508H34.9072H71.3845H77.0841C78.0611 204.508 78.8754 203.694 79.0382 202.879L85.0635 170.31C85.3892 169.333 84.7378 168.682 83.7607 168.682Z" fill="#3B3B40"></path><path fill-rule="evenodd" clip-rule="evenodd" d="M62.4277 217.047C62.4277 217.047 64.8704 218.187 67.8016 218.35C70.7328 218.513 69.5929 221.444 69.5929 222.909C69.5929 224.375 67.9645 226.329 67.1502 226.329C66.4989 226.329 61.125 224.864 61.125 224.864L62.4277 217.047Z" fill="#E0E0E0"></path><path fill-rule="evenodd" clip-rule="evenodd" d="M62.591 216.395C62.591 216.395 23.8339 198.32 17.1573 195.877C10.4807 193.434 3.15262 193.271 0.709947 200.274C-1.73273 207.276 2.01271 212.161 13.7375 216.884C25.4624 221.606 58.6827 226.329 59.9855 226.166C61.2883 226.003 61.4511 225.677 62.1025 223.886C62.7538 222.095 63.4053 218.675 63.5681 218.187C63.5681 217.535 63.2424 216.558 62.591 216.395Z" fill="#3B3B40"></path><path fill-rule="evenodd" clip-rule="evenodd" d="M54.9376 130.576C54.9376 130.739 55.1004 130.902 55.2633 130.902C55.4261 130.902 55.5889 130.739 55.5889 130.576C55.5889 129.925 55.2632 129.274 54.7747 128.785C54.2862 128.297 53.6348 127.971 52.9835 127.971C52.3321 127.971 51.6807 128.297 51.1922 128.785C50.7036 129.274 50.3779 129.925 50.3779 130.576C50.3779 130.739 50.5407 130.902 50.7036 130.902C50.8664 130.902 51.0293 130.739 51.0293 130.576C51.0293 130.088 51.1921 129.599 51.5178 129.274C51.8435 128.948 52.3321 128.785 52.8206 128.785C53.3091 128.785 53.7977 128.948 54.1233 129.274C54.7747 129.599 54.9376 130.088 54.9376 130.576Z" fill="#3B3B40"></path><path fill-rule="evenodd" clip-rule="evenodd" d="M24.6487 177.313L25.3001 180.407L27.5799 192.62L28.3942 197.017C28.3942 197.18 28.557 197.343 28.557 197.505C28.8827 198.157 29.6969 198.645 30.3483 198.645H36.0478H41.7474H72.688H78.3875C79.3646 198.645 80.1788 197.831 80.3417 197.017L79.8532 199.622L79.2018 202.879C79.0389 203.856 78.0619 204.508 77.2476 204.508H71.3852H36.8621C33.2795 202.879 29.6969 201.251 26.6029 199.948L26.1143 197.18L24.9744 191.317L21.0661 170.31C20.9033 169.333 21.5547 168.682 22.3689 168.682H22.8574L24.6487 177.313Z" fill="#BDBDBD"></path><path fill-rule="evenodd" clip-rule="evenodd" d="M87.8326 114.292C89.9496 121.945 82.2959 130.25 75.1307 137.416C72.1995 140.347 70.8967 143.604 70.4082 146.861V147.512C74.805 144.092 84.7385 134.647 88.9725 127.645C91.9037 122.597 90.9267 118.037 87.8326 114.292Z" fill="#828282"></path><path fill-rule="evenodd" clip-rule="evenodd" d="M36.698 160.865C36.698 157.771 35.8837 156.794 35.8837 156.794C35.8837 156.794 30.0213 163.634 26.6016 168.682H30.6727C32.7897 165.751 35.0695 162.982 36.698 160.865Z" fill="#828282"></path></svg> 